{"title":"American Gothic 2016 S01E08 1080p WEB-DL HEVC DD5.1x265","uid":15553534,"size":746699558,"categoryP":"video","categoryS":"hd___tv_shows","magnet":"?xt=urn:btih:ca011ae63ca3798bd89e77b35e69034747fcac46&amp;dn=American+Gothic+2016+S01E08+1080p+WEB-DL+HEVC+DD5.1x265&amp;tr=udp%3A%2F%2Ftracker.leechers-paradise.org%3A6969&amp;tr=udp%3A%2F%2Fzer0day.ch%3A1337&amp;tr=udp%3A%2F%2Fopen.demonii.com%3A1337&amp;tr=udp%3A%2F%2Ftracker.coppersurfer.tk%3A6969&amp;tr=udp%3A%2F%2Fexodus.desync.com%3A6969","seeders":0,"leechers":2,"uploader":"nayhtut","files":1,"time":1471044997,"description":"[Screenshots]\r\n \nhttps://s10.postimg.org/qhdh9f3rd/American_Gothic_2016_S01_E08_Kindred_Spirits_1080.jpg \nhttps://s10.postimg.org/sagdxqoy1/American_Gothic_2016_S01_E08_Kindred_Spirits_1080.jpg \nhttps://s10.postimg.org/bb7fihdqh/American_Gothic_2016_S01_E08_Kindred_Spirits_1080.jpg\r\n\r\n\r\nSource:  American Gothic 2016 S01E08 Kindred Spirits 1080p WEB.DL DD5.1 H.264.R2D2 (1.70 GB)\r\n\r\n \r\n__--__--__--__--__--__--__--__--__--__--__--__--__--\r\n\r\n\r\nComplete name                            : American.Gothic.2016.S01E08.Kindred.Spirits.1080p.WEB-DL.HEVC.DD5.1.x265.mkv\r\nFormat                                   : Matroska\r\nFormat version                           : Version 4 / Version 2\r\nFile size                                : 712 MiB\r\nDuration                                 : 43mn 13s\r\nOverall bit rate                         : 2 303 Kbps\r\nWriting application                      : Lavf57.25.100\r\nWriting library                          : Lavf57.25.100\r\n\r\nVideo\r\n\r\nID                                       : 1\r\nFormat                                   : V_MPEGH/ISO/HEVC\r\nCodec ID                                 : V_MPEGH/ISO/HEVC\r\nDuration                                 : 43mn 14s\r\nBit rate                                 : 1 873 Kbps\r\nWidth                                    : 1 920 pixels\r\nHeight                                   : 1 080 pixels\r\nDisplay aspect ratio                     : 16:9\r\nFrame rate                               : 25.000 fps\r\nBits/(Pixel*Frame)                       : 0.036\r\nStream size                              : 579 MiB (81%)\r\nWriting library                          : Lavc57.48.101 libx265\r\nLanguage                                 : English\r\nDefault                                  : Yes\r\nForced                                   : No\r\nDURATION                                 : 00:43:13.971000000\r\nNUMBER_OF_FRAMES                         : 62192\r\nNUMBER_OF_BYTES                          : 1700937909\r\n_STATISTICS_WRITING_APP                  : mkvmerge v7.2.0 ('On Every Street') 64bit built on Sep 13 2014 15:52:10\r\n_STATISTICS_WRITING_DATE_UTC             : 2016-08-11 17:29:40\r\n_STATISTICS_TAGS                         : BPS DURATION NUMBER_OF_FRAMES NUMBER_OF_BYTES\r\n\r\nAudio\r\n\r\nID                                       : 2\r\nFormat                                   : AC-3\r\nFormat/Info                              : Audio Coding 3\r\nMode extension                           : CM (complete main)\r\nFormat settings, Endianness              : Big\r\nCodec ID                                 : A_AC3\r\nDuration                                 : 43mn 13s\r\nBit rate mode                            : Constant\r\nBit rate                                 : 384 Kbps\r\nChannel(s)                               : 6 channels\r\nChannel positions                        : Front: L C R, Side: L R, LFE\r\nSampling rate                            : 48.0 KHz\r\nBit depth                                : 16 bits\r\nCompression mode                         : Lossy\r\nStream size                              : 119 MiB (17%)\r\nWriting library                          : Lavc57.24.102 ac3\r\nLanguage                                 : English\r\nDefault                                  : Yes\r\nForced                                   : No\r\nDURATION                                 : 00:43:13.983000000\r\nNUMBER_OF_FRAMES                         : 81060\r\nNUMBER_OF_BYTES                          : 124508160\r\n_STATISTICS_WRITING_APP                  : mkvmerge v7.2.0 ('On Every Street') 64bit built on Sep 13 2014 15:52:10\r\n_STATISTICS_WRITING_DATE_UTC             : 2016-08-11 17:29:40\r\n_STATISTICS_TAGS                         : BPS DURATION NUMBER_OF_FRAMES NUMBER_OF_BYTES\r\n\r\nText\r\n\r\nID                                       : 3\r\nFormat                                   : ASS\r\nCodec ID                                 : S_TEXT/ASS\r\nCodec ID/Info                            : Advanced Sub Station Alpha\r\nCompression mode                         : Lossless\r\nWriting library                          : Lavc57.48.101 ssa\r\nLanguage                                 : English\r\nDefault                                  : No\r\nForced                                   : No\r\nDURATION                                 : 00:42:34.935000000\r\nNUMBER_OF_FRAMES                         : 863\r\nNUMBER_OF_BYTES                          : 30740\r\n_STATISTICS_WRITING_APP                  : mkvmerge v7.2.0 ('On Every Street') 64bit built on Sep 13 2014 15:52:10\r\n_STATISTICS_WRITING_DATE_UTC             : 2016-08-11 17:29:40\r\n_STATISTICS_TAGS                         : BPS DURATION NUMBER_OF_FRAMES NUMBER_OF_BYTES\r\n\r\n__--__--__--__--__--__--__--__--__--__--__--__--__--\r\n \r\n\r\nIMDb: http://www.imdb.com/title/tt5257744\r\n\r\n\r\n__--__--__--__--__--__--__--__--__--__--__--__--__--\r\n\r\n\r\nAfter adding torrent with magnet link,\r\n\r\nplease add this  following trackers list to the torrent for better seeds.\r\n\r\n\r\nudp://tracker.coppersurfer.tk:6969/announce\r\n\r\nudp://tracker.opentrackr.org:1337/announce\r\n \nhttp://tracker.baravik.org:6970/announce\r\n \nhttp://tracker2.wasabii.com.tw:6969/announce\r\n\r\nudp://9.rarbg.me:2710/announce\r\n\r\n\r\n__--__--__--__--__--__--__--__--__--__--__--__--__--\r\n\r\n\r\nEnjoy!","torrent":{"xt":"urn:btih:ca011ae63ca3798bd89e77b35e69034747fcac46","amp;dn":"American+Gothic+2016+S01E08+1080p+WEB-DL+HEVC+DD5.1x265","amp;tr":["udp%3A%2F%2Ftracker.leechers-paradise.org%3A6969","udp%3A%2F%2Fzer0day.ch%3A1337","udp%3A%2F%2Fopen.demonii.com%3A1337","udp%3A%2F%2Ftracker.coppersurfer.tk%3A6969","udp%3A%2F%2Fexodus.desync.com%3A6969"],"infoHash":"ca011ae63ca3798bd89e77b35e69034747fcac46","infoHashBuffer":{"type":"Buffer","data":[202,1,26,230,60,163,121,139,216,158,119,179,94,105,3,71,71,252,172,70]},"announce":[],"urlList":[]}}